<svg width="89" height="89" viewBox="0 0 89 89" fill="none" xmlns="http://www.w3.org/2000/svg">
<g clip-path="url(#clip0_3_21)">
<path d="M43.1066 20.1479L29.5985 25.0644L25.7944 35.6275L17.6896 38.5775C16.2566 39.0991 15.0894 40.1685 14.4449 41.5506C13.8004 42.9328 13.7314 44.5143 14.253 45.9473L23.1027 70.2619C23.6243 71.6949 24.6938 72.862 26.0759 73.5065C27.458 74.151 29.0396 74.2201 30.4726 73.6985L73.6984 57.9656C75.1315 57.444 76.2986 56.3745 76.9431 54.9924C77.5876 53.6103 77.6566 52.0287 77.1351 50.5957L68.2853 26.2812C67.7637 24.8481 66.6942 23.681 65.3121 23.0365C63.93 22.392 62.3485 22.323 60.9154 22.8445L52.8106 25.7945L43.1066 20.1479Z" stroke="#4D94E6" stroke-width="2" stroke-linecap="round" stroke-linejoin="round"/>
<path d="M48.1523 55.0256C52.6285 53.3964 54.9364 48.447 53.3072 43.9708C51.678 39.4946 46.7286 37.1867 42.2524 38.8159C37.7762 40.4451 35.4683 45.3945 37.0975 49.8706C38.7267 54.3468 43.6761 56.6548 48.1523 55.0256Z" stroke="#4D94E6" stroke-width="2" stroke-linecap="round" stroke-linejoin="round"/>
</g>
<defs>
<clipPath id="clip0_3_21">
<rect width="69" height="69" fill="white" transform="translate(0 23.5994) rotate(-20)"/>
</clipPath>
</defs>
</svg>
