<svg width="89" height="89" viewBox="0 0 89 89" fill="none" xmlns="http://www.w3.org/2000/svg">
<g clip-path="url(#clip0_3_6)">
<path d="M48.1523 55.0256L53.0689 68.5336" stroke="#4D94E6" stroke-width="2" stroke-linecap="round" stroke-linejoin="round"/>
<path d="M56.9922 45.6891L63.8753 64.6004" stroke="#4D94E6" stroke-width="2" stroke-linecap="round" stroke-linejoin="round"/>
<path d="M63.8654 30.9494L74.6817 60.6672" stroke="#4D94E6" stroke-width="2" stroke-linecap="round" stroke-linejoin="round"/>
<path d="M62.3855 10.0715L47.529 41.9313C47.4493 42.1028 47.3366 42.2568 47.1972 42.3847C47.0579 42.5125 46.8947 42.6116 46.7171 42.6763C46.5394 42.7409 46.3507 42.7699 46.1618 42.7615C45.9729 42.7532 45.7875 42.7076 45.6162 42.6275L33.4855 36.9708C33.14 36.8098 32.7447 36.7926 32.3865 36.9229C32.0283 37.0533 31.7366 37.3206 31.5754 37.666L20.1528 62.157" stroke="#4D94E6" stroke-width="2" stroke-linecap="round" stroke-linejoin="round"/>
<path d="M28.506 68.2953L31.4559 76.4001" stroke="#4D94E6" stroke-width="2" stroke-linecap="round" stroke-linejoin="round"/>
<path d="M35.3793 53.5556L42.2624 72.4669" stroke="#4D94E6" stroke-width="2" stroke-linecap="round" stroke-linejoin="round"/>
</g>
<defs>
<clipPath id="clip0_3_6">
<rect width="69" height="69" fill="white" transform="translate(0 23.5994) rotate(-20)"/>
</clipPath>
</defs>
</svg>
