<svg width="89" height="89" viewBox="0 0 89 89" fill="none" xmlns="http://www.w3.org/2000/svg">
<g clip-path="url(#clip0_3_29)">
<path d="M50.5957 11.3031L42.4909 14.253C38.9083 15.557 35.9905 18.2307 34.3792 21.686C32.768 25.1412 32.5954 29.0951 33.8993 32.6776L36.8492 40.7825L28.7444 43.7324L32.6776 54.5389L40.7825 51.5889L48.6489 73.2019L59.4554 69.2686L51.5889 47.6557L59.6938 44.7058L58.4622 32.916L47.6557 36.8493L44.7058 28.7444C44.445 28.0279 44.4795 27.2371 44.8018 26.5461C45.124 25.855 45.7076 25.3203 46.4241 25.0595L54.5289 22.1096L50.5957 11.3031Z" stroke="#4D94E6" stroke-width="2" stroke-linecap="round" stroke-linejoin="round"/>
</g>
<defs>
<clipPath id="clip0_3_29">
<rect width="69" height="69" fill="white" transform="translate(0 23.5994) rotate(-20)"/>
</clipPath>
</defs>
</svg>
