<svg width="89" height="89" viewBox="0 0 89 89" fill="none" xmlns="http://www.w3.org/2000/svg">
<g clip-path="url(#clip0_3_32)">
<path d="M47.8941 12.2864L20.8779 22.1195C13.4176 24.8348 9.57105 33.0838 12.2864 40.5441L22.1195 67.5603C24.8348 75.0206 33.0838 78.8671 40.5441 76.1518L67.5602 66.3187C75.0206 63.6034 78.8671 55.3544 76.1518 47.8941L66.3187 20.8779C63.6034 13.4176 55.3544 9.57106 47.8941 12.2864Z" stroke="#4D94E6" stroke-width="2" stroke-linecap="round" stroke-linejoin="round"/>
<path d="M54.4061 38.5839C55.5578 40.7109 56.0096 43.147 55.697 45.5456C55.3845 47.9442 54.3236 50.1831 52.6652 51.944C51.0068 53.7049 48.8355 54.8981 46.4599 55.3538C44.0843 55.8094 41.6256 55.5045 39.4333 54.4822C37.2411 53.46 35.427 51.7725 34.2491 49.6598C33.0712 47.5471 32.5894 45.1168 32.8724 42.7145C33.1553 40.3122 34.1885 38.0603 35.8251 36.2791C37.4616 34.4979 39.6181 33.2781 41.9879 32.7932C44.4051 32.2985 46.9174 32.5944 49.1536 33.6371C51.3897 34.6799 53.2312 36.4142 54.4061 38.5839Z" stroke="#4D94E6" stroke-width="2" stroke-linecap="round" stroke-linejoin="round"/>
<path d="M53.6698 23.952L53.6968 23.9422" stroke="#4D94E6" stroke-width="2" stroke-linecap="round" stroke-linejoin="round"/>
</g>
<defs>
<clipPath id="clip0_3_32">
<rect width="69" height="69" fill="white" transform="translate(0 23.5994) rotate(-20)"/>
</clipPath>
</defs>
</svg>
