<svg width="90" height="90" viewBox="0 0 90 90" fill="none" xmlns="http://www.w3.org/2000/svg">
<path d="M19.1955 51.0972L63.5415 19.4373L75.5122 52.3266L22.1881 59.3195L19.1955 51.0972Z" stroke="#4D94E6" stroke-width="2" stroke-linecap="round" stroke-linejoin="round"/>
<path d="M48.5519 58.4147C48.6439 59.5632 48.5087 60.7187 48.1541 61.815C47.7996 62.9114 47.2325 63.9271 46.4854 64.8043C45.7382 65.6815 44.8256 66.403 43.7997 66.9275C42.7737 67.452 41.6545 67.7693 40.5059 67.8613C39.3574 67.9532 38.2019 67.8181 37.1056 67.4635C36.0092 67.1089 34.9935 66.5419 34.1163 65.7947C33.2391 65.0476 32.5176 64.135 31.9931 63.109C31.4686 62.0831 31.1513 60.9639 31.0594 59.8153" stroke="#4D94E6" stroke-width="2" stroke-linecap="round" stroke-linejoin="round"/>
</svg>
