<svg width="89" height="89" viewBox="0 0 89 89" fill="none" xmlns="http://www.w3.org/2000/svg">
<g clip-path="url(#clip0_3_2)">
<rect width="69" height="69" transform="translate(0.522751 24.1221) rotate(-20)" fill="white"/>
<path d="M69.0564 35.8921C70.5477 35.3493 71.33 33.6908 70.6416 32.2617C67.7612 26.286 62.903 21.4901 56.8905 18.6873C50.878 15.8844 44.0812 15.247 37.6524 16.8831C36.1125 17.2753 35.3476 18.9397 35.8904 20.431L43.7568 42.0439C44.0176 42.7604 44.5523 43.344 45.2434 43.6662C45.9345 43.9885 46.7252 44.023 47.4417 43.7622L69.0564 35.8921Z" stroke="#4D94E6" stroke-width="2" stroke-linecap="round" stroke-linejoin="round"/>
<path d="M73.4488 46.1949C73.2095 50.8849 71.8249 55.445 69.416 59.4763C67.0072 63.5077 63.6475 66.8876 59.6307 69.3206C55.6138 71.7535 51.0622 73.1655 46.3736 73.4329C41.685 73.7004 37.0023 72.8153 32.7349 70.8549C28.4674 68.8945 24.7451 65.9186 21.8935 62.1874C19.0418 58.4561 17.1476 54.0831 16.3764 49.4507C15.6053 44.8182 15.9806 40.0674 17.4697 35.6135C18.9588 31.1597 21.5162 27.1384 24.9184 23.9012" stroke="#4D94E6" stroke-width="2" stroke-linecap="round" stroke-linejoin="round"/>
</g>
<defs>
<clipPath id="clip0_3_2">
<rect width="69" height="69" fill="white" transform="translate(0.522751 24.1221) rotate(-20)"/>
</clipPath>
</defs>
</svg>
