<svg width="89" height="89" viewBox="0 0 89 89" fill="none" xmlns="http://www.w3.org/2000/svg">
<path d="M71.9802 61.6505L70.0136 56.2472C68.9704 53.3812 66.8314 51.0469 64.0672 49.7579C61.303 48.469 58.1399 48.3309 55.2739 49.374L39.0642 55.2739C36.1981 56.317 33.8638 58.456 32.5748 61.2202C31.2859 63.9844 31.1478 67.1475 32.1909 70.0136L34.1575 75.4168" stroke="#4D94E6" stroke-width="2" stroke-linecap="round" stroke-linejoin="round"/>
<path d="M43.2358 41.5175C49.204 39.3452 52.2813 32.746 50.109 26.7778C47.9368 20.8095 41.3376 17.7323 35.3693 19.9045C29.4011 22.0768 26.3238 28.676 28.4961 34.6442C30.6684 40.6125 37.2675 43.6897 43.2358 41.5175Z" stroke="#4D94E6" stroke-width="2" stroke-linecap="round" stroke-linejoin="round"/>
</svg>
