<svg width="89" height="89" viewBox="0 0 89 89" fill="none" xmlns="http://www.w3.org/2000/svg">
<g clip-path="url(#clip0_3_41)">
<path d="M33.3928 18.4669C33.4242 18.1846 33.5338 17.9167 33.7093 17.6934C33.8848 17.4701 34.1192 17.3003 34.3861 17.2032C34.653 17.106 34.9418 17.0854 35.2197 17.1437C35.4977 17.2019 35.7539 17.3367 35.9594 17.5328L46.801 27.9022C47.5149 28.5846 48.3838 29.0835 49.333 29.3562C50.2822 29.6289 51.2834 29.6671 52.2507 29.4677L66.9506 26.4304C67.229 26.3724 67.5181 26.3936 67.7851 26.4913C68.0521 26.5891 68.2864 26.7597 68.4616 26.9837C68.6367 27.2077 68.7456 27.4763 68.7761 27.759C68.8065 28.0418 68.7573 28.3274 68.6338 28.5835L62.1179 42.0857C61.6883 42.9766 61.4817 43.9586 61.5159 44.947C61.55 45.9355 61.8238 46.9009 62.3138 47.7601L69.7509 60.7791C69.8937 61.0265 69.9642 61.309 69.9543 61.5944C69.9443 61.8799 69.8543 62.1568 69.6946 62.3936C69.5348 62.6304 69.3117 62.8175 69.0507 62.9336C68.7898 63.0497 68.5014 63.0901 68.2186 63.0502L53.355 61.0315C52.3759 60.8991 51.3792 61.0065 50.4507 61.3444C49.5222 61.6824 48.6897 62.2408 48.0247 62.9716L37.9388 74.0711C37.7476 74.2827 37.5009 74.4363 37.2266 74.5146C36.9524 74.5929 36.6617 74.5927 36.3876 74.514C36.1135 74.4352 35.867 74.2811 35.6761 74.0692C35.4853 73.8573 35.3577 73.5961 35.3079 73.3153L32.6349 58.5654C32.4585 57.5916 32.0478 56.6753 31.4384 55.8956C30.8289 55.1159 30.0389 54.4962 29.1365 54.0899L15.467 47.9377C15.2063 47.8216 14.9834 47.6346 14.8238 47.398C14.6641 47.1614 14.5741 46.8848 14.5641 46.5995C14.554 46.3143 14.6243 46.032 14.7668 45.7847C14.9094 45.5374 15.1185 45.3352 15.3704 45.201L28.5818 38.0825C29.4524 37.6142 30.1961 36.9413 30.749 36.1219C31.3019 35.3024 31.6474 34.3608 31.7557 33.3783L33.3928 18.4669Z" stroke="#4D94E6" stroke-width="2" stroke-linecap="round" stroke-linejoin="round"/>
</g>
<defs>
<clipPath id="clip0_3_41">
<rect width="69" height="69" fill="white" transform="translate(0 23.5994) rotate(-20)"/>
</clipPath>
</defs>
</svg>
