<svg width="89" height="89" viewBox="0 0 89 89" fill="none" xmlns="http://www.w3.org/2000/svg">
<g clip-path="url(#clip0_3_25)">
<path d="M56.0088 42.9875L73.5432 47.2587C73.7959 47.32 74.0605 47.3117 74.3088 47.2345C74.5571 47.1573 74.7799 47.0143 74.9533 46.8205C75.1267 46.6268 75.2444 46.3897 75.2937 46.1344C75.343 45.8791 75.3222 45.6152 75.2333 45.3708L67.1742 23.2283C67.0877 22.9906 66.9401 22.7799 66.7462 22.6175C66.5523 22.4551 66.3189 22.3468 66.0698 22.3034C65.8206 22.26 65.5643 22.2831 65.327 22.3705C65.0896 22.4578 64.8794 22.6062 64.7177 22.8007L53.5506 36.2334" stroke="#4D94E6" stroke-width="2" stroke-linecap="round" stroke-linejoin="round"/>
<path d="M43.7225 26.0428L16.7063 35.8759C13.7222 36.962 12.1836 40.2616 13.2697 43.2457L21.1362 64.8586C22.2223 67.8428 25.5219 69.3814 28.506 68.2952L55.5222 58.4622C58.5063 57.376 60.0449 54.0764 58.9588 51.0923L51.0923 29.4794C50.0062 26.4953 46.7066 24.9566 43.7225 26.0428Z" stroke="#4D94E6" stroke-width="2" stroke-linecap="round" stroke-linejoin="round"/>
</g>
<defs>
<clipPath id="clip0_3_25">
<rect width="69" height="69" fill="white" transform="translate(0 23.5994) rotate(-20)"/>
</clipPath>
</defs>
</svg>
