<svg width="318" height="318" viewBox="0 0 318 318" fill="none" xmlns="http://www.w3.org/2000/svg">
<path d="M159 66.25C159.016 60.9504 157.971 55.7012 155.929 50.8111C153.886 45.921 150.886 41.4887 147.105 37.775C143.324 34.0613 138.839 31.1411 133.913 29.1862C128.987 27.2313 123.72 26.2811 118.422 26.3915C113.123 26.5019 107.9 27.6708 103.06 29.8293C98.2202 31.9878 93.8606 35.0923 90.2378 38.9604C86.6151 42.8284 83.8024 47.3818 81.9652 52.3528C80.128 57.3237 79.3033 62.6119 79.5397 67.9062C71.7514 69.9088 64.5209 73.6574 58.3958 78.8681C52.2707 84.0789 47.4117 90.6151 44.1867 97.9817C40.9617 105.348 39.4553 113.352 39.7817 121.387C40.108 129.422 42.2585 137.278 46.0702 144.359C39.3681 149.804 34.0979 156.804 30.718 164.75C27.3381 172.696 25.9509 181.347 26.6771 189.952C27.4033 198.556 30.2208 206.853 34.8847 214.12C39.5485 221.388 45.9174 227.405 53.4373 231.65C52.5086 238.834 53.0628 246.133 55.0655 253.095C57.0682 260.057 60.4769 266.535 65.0811 272.128C69.6854 277.721 75.3873 282.311 81.8349 285.614C88.2825 288.917 95.3387 290.863 102.568 291.332C109.797 291.801 117.046 290.783 123.866 288.341C130.687 285.899 136.934 282.085 142.222 277.134C147.511 272.183 151.728 266.2 154.614 259.555C157.499 252.91 158.992 245.744 159 238.5V66.25Z" stroke="#4D94E6" stroke-width="10" stroke-linecap="round" stroke-linejoin="round"/>
<path d="M119.25 172.25C130.374 168.337 140.088 161.213 147.163 151.779C154.239 142.345 158.358 131.025 159 119.25" stroke="#4D94E6" stroke-width="10" stroke-linecap="round" stroke-linejoin="round"/>
<path d="M79.5397 67.9062C79.8018 74.3157 81.6111 80.5666 84.8133 86.125" stroke="#4D94E6" stroke-width="10" stroke-linecap="round" stroke-linejoin="round"/>
<path d="M46.0703 144.372C48.4942 142.398 51.0881 140.642 53.8215 139.125" stroke="#4D94E6" stroke-width="10" stroke-linecap="round" stroke-linejoin="round"/>
<path d="M79.5 238.5C70.3685 238.504 61.3908 236.149 53.4373 231.663" stroke="#4D94E6" stroke-width="10" stroke-linecap="round" stroke-linejoin="round"/>
<path d="M159 172.25H212" stroke="#4D94E6" stroke-width="10" stroke-linecap="round" stroke-linejoin="round"/>
<path d="M159 238.5H238.5C245.528 238.5 252.269 241.292 257.238 246.262C262.208 251.231 265 257.972 265 265V278.25" stroke="#4D94E6" stroke-width="10" stroke-linecap="round" stroke-linejoin="round"/>
<path d="M159 106H265" stroke="#4D94E6" stroke-width="10" stroke-linecap="round" stroke-linejoin="round"/>
<path d="M212 106V66.25C212 59.2218 214.792 52.4814 219.762 47.5117C224.731 42.542 231.472 39.75 238.5 39.75" stroke="#4D94E6" stroke-width="10" stroke-linecap="round" stroke-linejoin="round"/>
<path d="M212 178.875C215.659 178.875 218.625 175.909 218.625 172.25C218.625 168.591 215.659 165.625 212 165.625C208.341 165.625 205.375 168.591 205.375 172.25C205.375 175.909 208.341 178.875 212 178.875Z" stroke="#4D94E6" stroke-width="10" stroke-linecap="round" stroke-linejoin="round"/>
<path d="M238.5 46.375C242.159 46.375 245.125 43.4089 245.125 39.75C245.125 36.0911 242.159 33.125 238.5 33.125C234.841 33.125 231.875 36.0911 231.875 39.75C231.875 43.4089 234.841 46.375 238.5 46.375Z" stroke="#4D94E6" stroke-width="10" stroke-linecap="round" stroke-linejoin="round"/>
<path d="M265 284.875C268.659 284.875 271.625 281.909 271.625 278.25C271.625 274.591 268.659 271.625 265 271.625C261.341 271.625 258.375 274.591 258.375 278.25C258.375 281.909 261.341 284.875 265 284.875Z" stroke="#4D94E6" stroke-width="10" stroke-linecap="round" stroke-linejoin="round"/>
<path d="M265 112.625C268.659 112.625 271.625 109.659 271.625 106C271.625 102.341 268.659 99.375 265 99.375C261.341 99.375 258.375 102.341 258.375 106C258.375 109.659 261.341 112.625 265 112.625Z" stroke="#4D94E6" stroke-width="10" stroke-linecap="round" stroke-linejoin="round"/>
</svg>
